# xmcd CD database file
# Copyright (C) 1993-1998 Ti Kan
#
# Track frame offsets:
#  150
#  22950
#  47195
#  68860
#  71747
#  92217
#  92720
#  113760
#  135557
#  153987
#  178170
#  197772
#  198987
#  216930
#
# Disc length: 3058 seconds
#
# Revision: 1
# Processed by: cddbd v1.4b41PL1 Copyright (c) Steve Scherf et al.
# Submitted via: CDWizzard Release:4.35
#
DISCID=ca0bf00e
DTITLE=Transformation Crusade - Makin' It Happen
DYEAR=1900
DGENRE=
TTITLE0=God's Makin' It Happen
TTITLE1=Keep On Pressin'
TTITLE2=Give You Love
TTITLE3=Coffee Break 1
TTITLE4=What Will They Say
TTITLE5=Black And White
TTITLE6=Race Thang
TTITLE7=There's More To Life
TTITLE8=Street Lies
TTITLE9=The Statement
TTITLE10=Life-Style
TTITLE11=Coffee Break 2
TTITLE12=It's Good To Sing Praises
TTITLE13=What Cha Gonna Do With The Cross
EXTD=
EXTT0=
EXTT1=
EXTT2=
EXTT3=
EXTT4=
EXTT5=
EXTT6=
EXTT7=
EXTT8=
EXTT9=
EXTT10=
EXTT11=
EXTT12=
EXTT13=
PLAYORDER=
